<svg width="21" height="21" viewBox="0 0 21 21" fill="none" xmlns="http://www.w3.org/2000/svg">
<path d="M4.32759 15.8286C6.02061 14.8717 7.97656 14.3255 10.0601 14.3255C12.1436 14.3255 14.0995 14.8717 15.7925 15.8286M12.5601 9.32552C12.5601 10.7062 11.4408 11.8255 10.0601 11.8255C8.67935 11.8255 7.56006 10.7062 7.56006 9.32552C7.56006 7.94481 8.67935 6.82552 10.0601 6.82552C11.4408 6.82552 12.5601 7.94481 12.5601 9.32552ZM17.5601 10.9922C17.5601 15.1343 14.2022 18.4922 10.0601 18.4922C5.91792 18.4922 2.56006 15.1343 2.56006 10.9922C2.56006 6.85005 5.91792 3.49219 10.0601 3.49219C14.2022 3.49219 17.5601 6.85005 17.5601 10.9922Z" stroke="black" stroke-linecap="round" stroke-linejoin="round"/>
</svg>
