<svg width="21" height="21" viewBox="0 0 21 21" fill="none" xmlns="http://www.w3.org/2000/svg">
<g id="Icon/Outline/chat-alt-2">
<path id="Icon" d="M14.2267 7.65853H15.8934C16.8139 7.65853 17.5601 8.40472 17.5601 9.3252V14.3252C17.5601 15.2457 16.8139 15.9919 15.8934 15.9919H14.2267V19.3252L10.8934 15.9919H7.56006C7.09982 15.9919 6.68315 15.8053 6.38155 15.5037M6.38155 15.5037L9.22673 12.6585H12.5601C13.4805 12.6585 14.2267 11.9123 14.2267 10.9919V5.99186C14.2267 5.07139 13.4805 4.3252 12.5601 4.3252H4.22673C3.30625 4.3252 2.56006 5.07139 2.56006 5.99186V10.9919C2.56006 11.9123 3.30625 12.6585 4.22673 12.6585H5.89339V15.9919L6.38155 15.5037Z" stroke="black" stroke-linecap="round" stroke-linejoin="round"/>
</g>
</svg>
