<svg width="177" height="68" viewBox="0 0 177 68" fill="none" xmlns="http://www.w3.org/2000/svg">
<g id="Layer 1">
<g id="Group">
<g id="Group_2">
<g id="Group_3">
<path id="Vector" d="M145.86 15.3444C145.8 15.4044 145.41 15.7644 145.31 15.8544L146.05 18.6344C146.05 18.6344 146.1 18.6944 146.14 18.6844L146.64 18.5544C146.64 18.5544 146.7 18.5044 146.69 18.4644L145.86 15.3344V15.3444Z" fill="#3C6058"/>
<path id="Vector_2" d="M130.46 2.22445C131.11 2.80445 132.22 3.36445 132.45 3.42445C131.49 3.80445 131.36 3.82445 130.63 3.81445C130.6 3.81445 130.56 3.84445 130.56 3.87445C130.56 3.92445 131.68 4.59445 133.65 4.70445L133.23 2.82445C133.2 2.70445 133.3 2.60445 133.42 2.61445C133.58 2.62445 133.82 2.63445 133.82 2.63445C134.68 2.63445 135.46 2.61445 136.27 2.49445C136.5 2.27445 136.32 1.62445 135.74 1.85445C133.39 2.61445 130.59 2.14445 130.59 2.14445C130.55 2.14445 130.36 2.10445 130.41 2.19445C130.41 2.20445 130.43 2.21445 130.44 2.22445H130.46Z" fill="#3C6058"/>
<path id="Vector_3" d="M112.68 29.3145C112.41 30.0545 111.59 31.9945 111.25 32.6945C110.92 33.3745 110.73 34.1245 110.5 34.8545C110.42 35.1245 110.05 35.3645 110.34 35.6745C110.65 35.9345 111.27 36.3445 111.33 36.3745C111.5 36.4345 111.68 36.5945 111.86 36.6245H114.03C114.16 36.5245 114.03 36.1945 113.94 36.0945C113.89 36.0345 113.79 35.9045 113.73 35.8545C113.67 35.6845 113.65 35.5845 113.63 35.4045C113.59 35.0845 113.63 34.7445 113.74 34.4345C113.86 34.1145 114.08 33.8445 114.29 33.5745C114.36 33.4845 114.66 33.0945 114.54 32.8545C114.35 32.5045 112.87 29.6345 112.67 29.3145H112.68ZM112.8 36.3745H112.3C112.26 36.3745 112.27 36.3345 112.27 36.3345C112.27 36.3345 112.38 36.0745 112.55 36.0745C112.72 36.0745 112.83 36.3345 112.83 36.3345C112.83 36.3345 112.83 36.3745 112.8 36.3745ZM113.75 36.3145C113.75 36.3145 113.75 36.3645 113.71 36.3645H113.09C113.04 36.3645 113.05 36.3145 113.05 36.3145C113.05 36.3145 113.19 35.9945 113.4 35.9945C113.61 35.9945 113.75 36.3145 113.75 36.3145Z" fill="#3C6058"/>
<path id="Vector_4" d="M141.53 1.09444C141.53 1.09444 141.54 1.09444 141.55 1.10444C141.56 1.10444 141.57 1.11444 141.58 1.11444L143.28 7.63444C143.47 7.53444 143.68 7.45444 143.9 7.40444L142.26 1.08444C142.55 0.714445 142.46 0.354444 142.24 0.154444C142.23 0.144444 142.21 0.134444 142.2 0.114444C142.17 0.0944444 142.14 0.0744444 142.11 0.0544444C142.09 0.0544444 142.08 0.0344444 142.06 0.0344444C142.03 0.0244444 141.99 0.0144444 141.96 0.00444444C141.94 0.00444444 141.92 0.00444444 141.91 0.00444444C141.82 -0.00555556 141.74 0.00444444 141.66 0.00444444C141.63 0.00444444 141.6 0.0144444 141.58 0.0244444C141.43 0.0744444 141.31 0.194444 141.24 0.374444C141.12 0.674444 141.38 0.994444 141.55 1.09444H141.53Z" fill="#3C6058"/>
<path id="Vector_5" d="M135.33 27.2645C135.18 26.8745 135 26.4945 134.81 26.1245C134.45 25.4445 133.43 24.3445 132.9 23.7845C132.87 23.8545 132.84 23.9345 132.79 24.0245C132.69 24.2545 132.55 24.5545 132.4 24.8745C132.1 25.5245 131.75 26.2945 131.5 26.8345C131.33 27.1945 131.22 27.4545 131.19 27.5145C131.41 27.8145 132.07 28.2345 132.28 28.4045C131.96 28.6645 131.64 28.9145 131.35 29.1845C131.15 29.3645 131.05 29.4245 130.75 29.4745C130.43 29.5245 129.97 29.6945 130.12 30.2445C130.32 30.9845 130.67 32.7945 130.84 33.0545C130.88 33.1145 130.92 33.1445 130.97 33.1645C131.21 33.2445 131.57 32.8545 131.73 32.6645C132.25 32.0745 132.84 31.4845 133.54 31.1345C133.84 30.9845 135 30.2145 135.22 29.9345C135.33 29.7945 135.86 28.8145 135.64 28.1845C135.61 28.0845 135.39 27.4745 135.31 27.2845L135.33 27.2645ZM130.88 31.7045C130.88 31.7045 130.84 31.7245 130.83 31.6845L130.69 31.1945C130.69 31.1545 130.72 31.1545 130.73 31.1545C130.73 31.1545 131.01 31.1945 131.05 31.3545C131.09 31.5145 130.88 31.6945 130.88 31.6945V31.7045ZM131.14 32.5845C131.14 32.5845 131.09 32.6045 131.08 32.5645L130.91 31.9645C130.91 31.9245 130.95 31.9145 130.95 31.9145C130.95 31.9145 131.29 31.9645 131.35 32.1645C131.4 32.3645 131.14 32.5845 131.14 32.5845Z" fill="#3C6058"/>
<path id="Vector_6" d="M146.46 14.1044C147.41 13.0544 147.91 11.8344 147.59 10.3844C147.53 10.1044 147.41 9.83444 147.29 9.57444C147.04 9.02444 146.59 8.66444 146.11 8.31444C145.54 7.89444 144.72 7.74444 144 7.90444C143.78 7.95444 143.57 8.03444 143.38 8.14444C143.33 8.17444 143.28 8.19444 143.24 8.22444C142.72 8.59444 142.59 9.48444 142.96 10.0044C143.19 10.3244 143.58 10.4344 143.97 10.4544L144.58 12.8444C144.74 12.6944 144.94 12.5144 145.13 12.3344L144.64 10.4044C144.81 10.3644 144.97 10.3144 145.1 10.1944C145.18 10.1244 145.48 9.62444 145.38 9.49444C145.91 9.84444 146.21 10.5144 146.13 11.1044C146.02 11.8144 145.7 12.3844 145.27 12.8544C145.1 13.0344 144.91 13.2044 144.72 13.3544C144.55 13.4844 144.37 13.6144 144.18 13.7244C142.91 14.4844 140.54 13.6444 140.49 13.6144L140.41 13.5744C140.72 13.0044 141.2 11.8044 141.24 11.6244C141.28 11.4344 141.25 11.1244 141.07 11.0144C140.94 10.9344 140.74 11.0444 140.63 11.1244C140.52 11.2144 140.29 11.5144 140.29 11.5144C140.01 11.9644 139.64 12.3444 139.31 12.7044C139.24 12.7844 139.16 12.8644 139.08 12.9344C139.08 12.9344 139.08 12.9344 139.07 12.9444C138.83 12.8244 138.57 12.6844 138.37 12.6044C137.93 12.4444 137.48 12.3044 137.05 12.1244C136.25 11.7844 135.44 11.9944 134.66 12.0944C133.89 12.2044 133.15 12.1344 132.43 11.9444C131.66 11.7444 130.98 11.8744 130.39 12.3844C130 12.7144 129.57 13.0344 129.29 13.4544C129.17 13.6344 129.03 13.9044 129 14.1244C128.96 14.4244 128.96 14.7244 128.84 15.0044C128.73 15.2544 128.5 15.4144 128.33 15.6144C128.11 15.8644 127.9 16.1244 127.7 16.3944C127.65 16.4644 127.49 16.6844 127.46 16.8044C127.45 16.8444 127.44 16.8944 127.44 16.9444C127.44 17.0644 127.47 17.2044 127.49 17.3344C127.52 17.4844 127.55 17.6344 127.55 17.7844C127.55 17.8144 127.55 17.8544 127.55 17.8844C127.55 17.9544 127.52 18.0144 127.51 18.0644C127.49 18.1444 127.47 18.1944 127.46 18.2344C127.41 18.4744 127.34 18.6744 127.28 18.8644C127.22 19.0344 127.17 19.1944 127.14 19.3644L127.12 19.4844C127.09 19.6144 127.07 19.7344 127.06 19.8344V19.8844C127.06 20.1044 127.12 20.3644 127.18 20.6144L127.21 20.7344V20.7844C127.25 20.9244 127.28 21.0444 127.31 21.1544C127.33 21.2144 127.35 21.2644 127.37 21.3144L127.39 21.3444H127.43C127.74 21.2344 127.97 21.1044 128.14 20.9344L128.16 20.9144C128.16 20.9144 128.34 20.7644 128.52 20.6444C128.58 20.6044 128.62 20.5744 128.69 20.5444C128.69 20.5444 128.09 19.1144 128.09 19.0144C128.09 18.8844 128.19 18.8244 128.3 18.8944C128.4 18.9544 129.24 20.7144 129.25 20.7344C129.35 20.8644 129.52 20.8844 129.57 20.8544C129.76 20.7544 130.08 20.3444 130.08 20.3444C129.92 19.9944 129.68 19.4544 129.68 19.3744C129.68 19.2444 129.79 19.1744 129.89 19.2544C129.95 19.3044 130.19 19.8044 130.42 20.1444L130.52 20.0844C130.7 19.9744 130.87 19.8844 130.91 19.8544L131.1 19.7644C131.2 19.7144 131.33 19.6544 131.42 19.6044C131.48 19.5744 131.54 19.5344 131.54 19.5344L131.59 19.4844L131.75 19.3244V19.2944C131.75 19.2944 131.34 18.1144 131.32 17.9844C131.3 17.8544 131.41 17.7144 131.55 17.8344C131.66 17.9244 132.05 18.8644 132.12 19.0644C132.14 19.1244 132.17 19.2444 132.17 19.2644C132.15 19.5244 132.01 19.6544 131.83 19.8144L131.8 19.8444C131.8 19.8444 131.11 20.2244 131.1 20.2244C131.01 20.2744 130.69 20.4644 130.49 20.5844L130.43 20.6244C130.43 20.6244 130.38 20.6544 130.36 20.6644L130.32 20.7044C130.17 20.8844 130 21.0844 129.74 21.2244C129.66 21.2744 129.46 21.3744 129.29 21.3744C129.26 21.3744 129.24 21.3744 129.21 21.3744C129.12 21.3644 129.06 21.3244 129.02 21.2844C128.97 21.2444 128.93 21.2044 128.89 21.1544C128.85 21.1044 128.81 21.0644 128.78 21.0144L128.76 20.9844L128.69 21.0244C128.69 21.0244 128.64 21.0544 128.62 21.0744L128.58 21.0944C128.51 21.1444 128.43 21.2044 128.38 21.2444L128.35 21.2644L128.33 21.2844C128.08 21.5344 127.78 21.7144 127.32 21.8344C127.3 21.8344 127.29 21.8344 127.27 21.8344C127.2 21.8344 127.14 21.8044 127.1 21.7544C127 21.6344 126.95 21.5044 126.9 21.3144C126.87 21.2044 126.84 21.0944 126.82 20.9944L126.75 20.7044C126.69 20.4744 126.63 20.2044 126.63 19.9244V19.8544C126.63 19.7144 126.67 19.5744 126.7 19.4544C126.7 19.4144 126.72 19.3644 126.73 19.3344C126.77 19.1244 126.84 18.9344 126.9 18.7544C126.96 18.5744 127.02 18.4044 127.06 18.2044C127.07 18.1344 127.09 18.0644 127.11 18.0144C127.13 17.9344 127.14 17.9044 127.14 17.8944V17.8544C127.14 17.7644 127.12 17.6444 127.09 17.4844V17.4244C127.05 17.2944 127.03 17.1544 127.03 17.0144C127.03 16.9144 127.04 16.8344 127.06 16.7544C127.12 16.5544 127.24 16.3944 127.34 16.2444L127.37 16.2044C127.58 15.9044 127.82 15.6244 128.06 15.3444C128.15 15.2444 128.48 14.9244 128.49 14.6844C128.49 14.5244 128.16 14.7744 128.07 14.8244C127.41 15.1844 126.75 15.7244 126.05 15.9444C125.28 16.1844 121.92 16.3944 121.11 16.4544C119.65 16.5644 118.25 16.5644 116.79 16.7544C115.59 16.9144 114.53 17.3744 113.74 18.3044C113.31 18.8044 112.93 19.3544 112.6 19.9344C112.19 20.6644 111.88 21.1444 111.66 21.9444C111.55 22.3444 111.47 22.7644 111.4 23.1744C111.34 23.5544 111.29 23.9844 111.06 24.3044C110.88 24.5544 110.64 24.7344 110.38 24.8744C109.46 25.3744 108.82 25.1044 108.36 24.3044C107.99 23.6644 108.03 23.0144 108.33 22.3544C108.37 22.2744 108.41 22.1844 108.44 22.1144C108.5 22.1144 108.61 22.1144 108.67 22.0644C109.04 21.8244 109.06 21.2444 108.99 20.8644C108.92 20.4744 108.76 20.1544 108.54 19.8344C108.51 19.7944 108.48 19.7444 108.46 19.7044C108.44 19.6444 108.41 19.5844 108.36 19.5144C108.3 19.4344 108.2 19.4444 108.15 19.5344C108.12 19.5744 108.12 19.6344 108.13 19.6944C108.14 19.8744 108.22 20.0444 108.19 20.2144C108.17 20.3644 108.08 20.4944 108.03 20.6344C107.9 20.9644 107.8 21.4444 107.94 21.7944C107.71 22.1244 107.51 22.6244 107.48 22.7544C107.37 23.2044 107.4 23.6744 107.54 24.1044C107.54 24.1244 107.55 24.1444 107.56 24.1644C107.97 25.3644 109.13 26.1044 110.4 25.6644C110.55 25.6144 111.23 25.4544 111.41 25.6644C111.62 26.1444 115.16 33.0244 115.31 33.2644C115.87 34.1144 115.95 35.0444 115.87 36.0144C115.83 36.5344 115.85 36.6544 116.38 36.6444C117.1 36.6444 119.22 36.6444 119.55 36.6444C119.79 36.6444 119.85 36.4744 119.76 36.2244C119.69 36.0444 119.59 35.8244 119.48 35.6744C119.26 35.3944 119.08 35.0944 118.93 34.7844C118.72 34.3344 118.44 32.2244 118.44 32.0744C118.44 31.2544 118.3 30.4244 118.62 29.6344C118.8 29.1944 118.85 28.9144 119.03 28.4744C119.1 28.3044 119.46 27.2944 119.48 27.2344C119.68 26.6744 119.93 26.8644 119.89 27.2644C119.87 27.5344 119.77 28.3344 119.86 28.3744C120.99 28.5444 124.83 28.4944 125.5 28.0144C125.63 27.5844 126.18 25.5744 126.26 25.3544C126.39 24.9544 126.64 25.0644 126.6 25.5144C126.6 25.5944 126.37 27.4544 126.29 28.0244C126.12 29.3044 125.92 30.5744 125.76 31.8644C125.61 33.0544 125.31 34.2044 124.79 35.2844C124.66 35.5544 124.57 35.9344 124.46 36.2144C124.36 36.4744 124.47 36.6544 124.73 36.6544H128.23C128.34 36.6544 128.74 36.7344 128.27 35.5844C128.02 34.8844 127.87 34.1244 128.22 33.3844L128.83 31.4344C128.92 31.2344 130.4 28.1244 130.75 27.3344C130.86 27.0944 132.44 23.6544 132.53 23.4144C132.63 23.1544 132.64 22.9544 132.64 22.4644C132.64 22.1144 132.76 21.7244 132.94 21.4144C133.6 20.2644 134.31 19.1444 135.01 18.0144C135.27 17.5844 135.59 17.1944 136.08 17.0444C136.55 16.9044 137.05 16.8644 137.52 16.7344C137.71 16.6844 137.95 16.5344 138.01 16.3944C138.12 16.1044 138.29 16.0044 138.56 15.9944C138.79 15.9944 140 16.2244 140.27 16.2544C140.27 16.2544 143.25 16.9644 144.78 15.7244C144.81 15.7044 145.04 15.5144 145.23 15.3344C145.4 15.1844 145.59 15.0044 145.78 14.8244C146.06 14.5644 146.33 14.2944 146.48 14.1344L146.46 14.1044ZM118.49 36.2944C118.49 36.2944 118.69 35.8544 118.97 35.8544C119.25 35.8544 119.45 36.2944 119.45 36.2944C119.45 36.2944 119.46 36.3644 119.4 36.3744H118.54C118.48 36.3744 118.49 36.3044 118.49 36.2944ZM118.15 36.3744H117.46C117.41 36.3744 117.42 36.3244 117.42 36.3144C117.42 36.3144 117.58 35.9544 117.81 35.9544C118.04 35.9544 118.2 36.3044 118.2 36.3044C118.2 36.3044 118.21 36.3644 118.16 36.3644L118.15 36.3744ZM126.78 36.3744H126.09C126.04 36.3744 126.05 36.3244 126.05 36.3144C126.05 36.3144 126.21 35.9644 126.44 35.9644C126.67 35.9644 126.83 36.3144 126.83 36.3144C126.83 36.3144 126.84 36.3744 126.79 36.3744H126.78ZM128.09 36.2944C128.09 36.2944 128.1 36.3644 128.04 36.3744H127.18C127.12 36.3744 127.13 36.3044 127.13 36.3044C127.13 36.3044 127.33 35.8644 127.61 35.8644C127.9 35.8644 128.09 36.3044 128.09 36.3044V36.2944ZM134.07 14.0144C133.96 14.0744 133.38 14.1944 133.21 14.2344C133.24 14.0144 133.3 13.2844 133.36 13.1844C133.38 13.1444 133.42 13.1344 133.46 13.1544C133.47 13.1544 133.48 13.1744 133.5 13.1844C133.74 13.4544 133.83 13.8444 133.84 13.8544C133.84 13.8544 133.98 13.8344 134.02 13.8444C134.06 13.8444 134.1 13.8644 134.11 13.9044C134.13 13.9444 134.12 13.9944 134.08 14.0244L134.07 14.0144ZM139.97 13.3744C139.97 13.3744 139.96 13.4044 139.95 13.4144C139.89 13.5244 139.84 13.6044 139.81 13.6544C139.33 14.3044 138.81 14.9644 138.19 15.4744C138.13 15.5244 137.42 16.0044 137.25 16.0944C137.19 16.1244 137.12 16.1444 137.04 16.1444C136.77 16.1444 136.43 15.9544 136.32 15.7444C136.17 15.4444 136.24 15.2744 136.55 15.1544C137.42 14.8044 138.2 14.3444 138.93 13.7444C139.15 13.5644 139.35 13.3744 139.54 13.1744C139.59 13.1244 139.64 13.0744 139.69 13.0244C140.04 12.6444 140.35 12.2244 140.63 11.7744C140.67 11.7144 140.75 11.5644 140.81 11.5544C140.86 11.5544 140.85 11.6644 140.83 11.7144C140.81 11.8144 140.28 12.8544 139.98 13.3744H139.97Z" fill="#3C6058"/>
</g>
<path id="Vector_7" d="M139.86 1.62444C139.57 1.59444 139.24 1.69444 139.17 2.01444C139.15 2.11444 139.16 2.22444 139.17 2.32444C139.17 2.32444 139.2 2.42444 139.21 2.46444C138.03 2.73444 136.16 3.09444 134.4 3.09444C134.4 3.09444 134.1 3.09444 133.97 3.07444C133.85 3.06444 133.75 3.16444 133.78 3.28444L134.36 5.90444C134.36 5.90444 134.37 5.95444 134.39 5.97444C134.45 6.05444 134.67 6.21444 135.39 6.27444C135.39 6.27444 137.71 6.56444 141.21 5.57444C141.3 5.55444 141.36 5.45444 141.33 5.36444L141.25 5.07444V5.01444C141.18 4.60444 141.84 4.64444 142 4.65444L141.21 1.61444C140.86 1.69444 140.28 1.66444 139.85 1.62444H139.86ZM136.29 5.67444C136.71 4.79444 137.23 4.08444 137.58 3.43444C138.83 3.25444 139.32 3.09444 139.98 2.92444L140.59 5.08444C138.71 5.56444 137.23 5.67444 136.29 5.67444Z" fill="#3C6058"/>
</g>
<g id="Group_4">
<path id="Vector_8" d="M30.8399 25.9544C30.8399 18.8844 36.1199 14.2144 41.4299 14.2144C46.7399 14.2144 51.9599 18.7244 51.9599 25.8644C51.9599 33.0044 46.6799 37.6044 41.3999 37.6044C36.1199 37.6044 30.8399 33.0644 30.8399 25.9544ZM48.7899 25.9244C48.7899 17.1844 45.4899 14.6644 41.2999 14.6644C37.1099 14.6644 33.9999 17.1944 33.9999 25.8944C33.9999 34.5944 37.2999 37.1544 41.4899 37.1544C45.6799 37.1544 48.7899 34.5944 48.7899 25.9244Z" fill="#3C6058"/>
<path id="Vector_9" d="M71.44 19.0044C73.9 16.5044 73.8399 15.3844 70.3499 15.0044V14.7444H78.86V15.0044C76.11 15.4244 75.3099 15.9944 71.82 19.4544L67.5999 23.6144L74.3499 32.8944C76.7199 36.1244 77.17 36.4144 79.57 36.7644V37.0544H70.32V36.7644C73.01 36.6044 73.2599 35.8344 71.9199 33.9844L65.7799 25.4444L63.4399 27.7444V34.5944C63.4399 36.1644 63.7599 36.6744 66.7399 36.7744V37.0644H56.95V36.7744C60.21 36.6744 60.7299 36.1344 60.7299 34.5644V17.2244C60.7299 15.6544 60.22 15.1144 56.95 15.0144V14.7544H66.97V15.0144C63.77 15.1144 63.45 15.6244 63.45 17.1944V26.9844L71.4499 19.0144L71.44 19.0044Z" fill="#3C6058"/>
<path id="Vector_10" d="M82.7099 36.7644C85.9699 36.6644 86.4899 36.1244 86.4899 34.5544V17.2144C86.4899 15.6744 85.9799 15.1044 82.7099 15.0044V14.7444H92.9199V15.0044C89.5899 15.1044 89.2099 15.6144 89.2099 17.2144V36.5744H93.8199C97.1099 36.5744 98.3999 35.3944 100.32 30.2344L100.61 30.2644L100.29 37.0444H82.7199V36.7544L82.7099 36.7644Z" fill="#3C6058"/>
</g>
<g id="Group_5">
<path id="Vector_11" d="M7.79995 64.4844C7.79995 65.8644 8.46995 66.5044 11.1599 66.5944V67.0144H0.569946V66.5944C3.34995 66.4944 4.05995 65.7944 4.05995 64.4844V47.2044C4.05995 45.9244 3.35995 45.1844 0.569946 45.0944V44.7144H10.6499C17.2399 44.7144 19.7399 47.1144 19.7399 50.1244C19.7399 52.8744 17.8799 55.0244 12.9599 55.7544V55.8544C17.6999 56.0144 18.8199 58.1244 19.2599 61.3544L19.4799 63.1744C19.9299 66.0244 20.4399 66.4044 23.1899 66.4344V66.8144C22.0999 67.0744 20.9499 67.1644 19.8899 67.1644C16.4299 67.1644 15.7899 65.9844 15.4699 63.1044L15.1499 60.1644C14.7999 56.9344 13.9299 56.1044 10.2199 56.1044H7.78995V64.4844H7.79995ZM10.4899 55.4944C14.7799 55.4944 15.6699 53.6744 15.6699 50.2744C15.6699 47.2344 14.3899 45.3144 10.0699 45.3144H7.79995V55.4844H10.4899V55.4944Z" fill="#3C6058"/>
<path id="Vector_12" d="M25.9799 66.5944C28.7599 66.4944 29.4699 65.7944 29.4699 64.4844V47.2044C29.4699 45.9244 28.7699 45.1844 25.9799 45.0944V44.7144H44.54L44.6399 51.9144L44.1899 51.9744C42.3299 47.4344 40.8599 45.3144 37.0499 45.3144H33.2099V55.1344H34.9399C37.5999 55.1344 38.9999 54.1444 39.8699 50.7544H40.29V60.1344H39.8699C39.0099 56.7444 37.5999 55.7544 34.9399 55.7544H33.2099V66.4144H36.9899C41.4699 66.4144 43.1699 64.2744 45.1199 59.3744L45.57 59.4044L45.41 67.0244H25.99V66.6044L25.9799 66.5944Z" fill="#3C6058"/>
<path id="Vector_13" d="M65.34 48.3544C64.51 45.8244 63.9 45.3144 61.76 45.0944V44.7144H71.52V45.0944C68.86 45.2544 68.42 45.8344 69.06 47.7844L73.73 62.1544H73.86L77.8 49.6744C78.76 46.6344 78.12 45.6144 75.4 45.0944V44.7144H82.98V45.0944C80.58 45.5144 79.56 46.8244 78.44 50.3144L72.94 67.5944H71.82L66.41 51.4644L60.59 67.5944H59.47L53.26 48.3644C52.52 46.0644 51.92 45.4844 49.52 45.1044V44.7244H59.44V45.1044C56.85 45.2644 56.56 46.0944 57.1 47.7944L61.48 62.2244H61.61L66.03 50.4444L65.36 48.3644L65.34 48.3544Z" fill="#3C6058"/>
<path id="Vector_14" d="M95.9299 58.4644H88.3799L87.2899 61.2444C85.8499 65.0244 86.3899 66.1044 89.3099 66.5844V67.0044H81.8199V66.5844C83.9299 66.0044 85.0799 64.7644 86.4299 61.3044L93.2499 44.0544H94.5899L101.76 63.5044C102.56 65.6844 103.04 66.2244 105.5 66.5744V66.9944H94.9999V66.5744C98.0399 66.4144 98.4899 65.7444 97.8499 63.9544L95.9299 58.4544V58.4644ZM95.7099 57.8244L92.3799 48.3844H92.2499L88.5999 57.8244H95.6999H95.7099Z" fill="#3C6058"/>
<path id="Vector_15" d="M115.58 64.4844C115.58 65.8644 116.25 66.5044 118.94 66.5944V67.0144H108.35V66.5944C111.13 66.4944 111.84 65.7944 111.84 64.4844V47.2044C111.84 45.9244 111.14 45.1844 108.35 45.0944V44.7144H118.43C125.02 44.7144 127.52 47.1144 127.52 50.1244C127.52 52.8744 125.66 55.0244 120.74 55.7544V55.8544C125.48 56.0144 126.6 58.1244 127.04 61.3544L127.26 63.1744C127.71 66.0244 128.22 66.4044 130.97 66.4344V66.8144C129.88 67.0744 128.73 67.1644 127.67 67.1644C124.21 67.1644 123.57 65.9844 123.25 63.1044L122.93 60.1644C122.58 56.9344 121.71 56.1044 118 56.1044H115.57V64.4844H115.58ZM118.27 55.4944C122.56 55.4944 123.45 53.6744 123.45 50.2744C123.45 47.2344 122.17 45.3144 117.85 45.3144H115.58V55.4844H118.27V55.4944Z" fill="#3C6058"/>
<path id="Vector_16" d="M133.75 66.5944C136.53 66.4944 137.24 65.7944 137.24 64.4844V47.2044C137.24 45.9244 136.54 45.1844 133.75 45.0944V44.7144H143.77C151.71 44.7144 155.83 49.3244 155.83 55.4644C155.83 61.6044 152.31 67.0144 144.15 67.0144H133.75V66.5944ZM143.13 66.4044C149.53 66.4044 151.61 63.9444 151.61 55.7144C151.61 47.4844 148.83 45.3144 143.23 45.3144H140.99V66.4044H143.13Z" fill="#3C6058"/>
<path id="Vector_17" d="M161.72 59.5845H162.17C164.09 63.8445 166.36 66.8145 169.79 66.8145C172.93 66.8145 174.49 64.7045 174.49 62.6845C174.49 59.8645 172.57 58.7445 168.6 57.3745C165.4 56.2545 162.07 55.2345 162.07 51.1045C162.07 46.9745 165.3 44.2545 169.62 44.2545C171.51 44.2545 173.27 44.7945 174.42 45.3445L175.57 44.0645H175.95V51.2045H175.5C173.74 46.9845 171.69 44.8645 169.1 44.8645C166.92 44.8645 164.94 46.2745 164.94 48.8045C164.94 51.5545 167.02 52.5845 170.7 53.7945C173.74 54.8145 177 55.9345 177 60.0945C177 63.6145 174.92 67.4545 169.38 67.4545C167.56 67.4545 165.41 66.8144 164 66.0145L162.08 67.5844H161.7V59.5845H161.72Z" fill="#3C6058"/>
</g>
</g>
</g>
</svg>
